<?xml version="1.0" encoding="UTF-8" standalone="no"?>
<!-- Created with Inkscape (http://www.inkscape.org/) -->

<svg
   width="247.7861mm"
   height="182.72897mm"
   viewBox="0 0 247.7861 182.72897"
   version="1.1"
   id="svg5"
   xmlns="http://www.w3.org/2000/svg"
   xmlns:svg="http://www.w3.org/2000/svg">
  <defs
     id="defs2" />
  <g
     id="layer1"
     transform="translate(-10.800822,-90.000821)">
    <path
       style="fill:none;fill-rule:evenodd;stroke:#000000;stroke-width:10.927;stroke-linecap:square;stroke-linejoin:round;stroke-opacity:1"
       d="m 99.817478,95.464318 c 73.416192,0 68.808482,90.882202 0,90.882202 -68.808483,0 -62.357688,-90.882202 0,-90.882202 z"
       id="path236" />
    <path
       style="fill:none;fill-rule:evenodd;stroke:#000000;stroke-width:10.927;stroke-linecap:square;stroke-linejoin:round;stroke-opacity:1"
       d="m 100.73902,187.26762 c 25.59294,2.21389 13.29373,30.42418 0,29.47531 -20.835232,-1.48715 -14.383728,-30.71956 0,-29.47531 z"
       id="path792" />
    <path
       style="fill:none;fill-rule:evenodd;stroke:#000000;stroke-width:10.927;stroke-linecap:round;stroke-linejoin:round;stroke-opacity:1"
       d="M 54.04755,208.14597 16.264321,99.148733"
       id="path890" />
    <path
       style="fill:none;fill-rule:evenodd;stroke:#000000;stroke-width:10.927;stroke-linecap:round;stroke-linejoin:round;stroke-opacity:1"
       d="M 145.89458,213.67259 189.51424,96.692456"
       id="path892" />
    <path
       style="fill:none;fill-rule:evenodd;stroke:#000000;stroke-width:10.927;stroke-linecap:round;stroke-linejoin:round;stroke-opacity:1"
       d="m 182.44285,223.10357 h 18.03214"
       id="path1002" />
    <path
       style="fill:none;fill-rule:evenodd;stroke:#000000;stroke-width:10.927;stroke-linecap:round;stroke-linejoin:round;stroke-opacity:1"
       d="m 190.92857,223.10357 c 0,0 7.425,33.58929 -9.54643,32.88214"
       id="path1004" />
    <path
       style="fill:none;fill-rule:evenodd;stroke:#000000;stroke-width:10.927;stroke-linecap:round;stroke-linejoin:round;stroke-opacity:1"
       d="m 219.92142,258.10713 v -36.06428 c 22.47092,-3.7932 22.80331,21.98059 0.70715,20.50715 11.66786,9.9 15.55714,14.49643 15.55714,14.49643"
       id="path1006" />
    <circle
       id="path1008"
       style="fill:#000000;stroke:none;stroke-width:0.264583"
       cx="205.07143"
       cy="266.59286"
       r="6.1369276" />
    <circle
       id="path1008-9"
       style="fill:#000000;stroke:none;stroke-width:0.264583"
       cx="252.45"
       cy="266.59286"
       r="6.1369276" />
  </g>
</svg>
